<svg xmlns="http://www.w3.org/2000/svg" width="137.238" height="127.836" viewBox="0 0 137.238 127.836">
  <g id="Group_3735" data-name="Group 3735" transform="matrix(0.809, 0.588, -0.588, 0.809, 34.027, -154.637)" opacity="0.4">
    <path id="Path_8619" data-name="Path 8619" d="M101.169,143.169c-.637-.935-.212-1.59.506-2.174.471-.385.941-.774,1.391-1.185a4.622,4.622,0,0,1,5.716-.246,2.774,2.774,0,0,1,1.1,3.854,7.461,7.461,0,0,1-2.075,2.69c-.32.257-.723.6-1.077.591-1.046-.04-1.349.655-1.693,1.444a2.852,2.852,0,0,0,.265.464c3.554,4.226,6.99,8.557,10.92,12.449,2.189,2.17,4.441,4.281,6.73,6.347a18.359,18.359,0,0,0,4.622,3.12,5.631,5.631,0,0,0,4.439.216,21.178,21.178,0,0,0,6.376-4.043c-.542-.794-.116-1.348.364-1.941a33.521,33.521,0,0,1,6.177-6.068,4.744,4.744,0,0,1,2.964-1.3.921.921,0,0,0,.559-.335q2.221-2.379,4.415-4.781a6.615,6.615,0,0,0,.4-.554,3.4,3.4,0,0,0,.492-3.553,20.294,20.294,0,0,0-1.606-3.264c-1.415-2.12-2.959-4.152-4.451-6.22q-3.41-4.721-6.823-9.44c-.782-1.078-1.591-2.137-2.387-3.205a3.737,3.737,0,0,0-5.778-.076,10.659,10.659,0,0,1-1.511,1.386c-2.653,1.993-4.969.9-6.445-1.476-1.061-1.705-.814-2.454.891-3.574a4.555,4.555,0,0,1,3.981-.87,1.8,1.8,0,0,0,1.074-.153c.67-.265,1.317-.594,1.962-.919a6.264,6.264,0,0,1,6.867.8,15.444,15.444,0,0,1,2.96,2.826,189.93,189.93,0,0,1,13.593,18.907,14.514,14.514,0,0,1,2.149,4.512,10.951,10.951,0,0,1-.763,6.587,18.825,18.825,0,0,1-4.632,6.162,2.2,2.2,0,0,0-.844,1.5,8,8,0,0,1-1.032,2.295c.4.41.893.87,1.329,1.38.89,1.039,1.754,2.1,2.611,3.165a2.01,2.01,0,0,1,.438.79,4.366,4.366,0,0,0,1.86,2.45c4.6,3.757,9.158,7.567,13.8,11.268a37.17,37.17,0,0,0,6.782,4.419,10,10,0,0,0,5.415,1.062,6.322,6.322,0,0,0,5.588-3.924c1.343-3.1,1.354-6.178-.766-8.974a44.978,44.978,0,0,0-3.289-3.632c-1.517-1.6-3.083-3.162-4.588-4.777a16.7,16.7,0,0,1-1.612-2.07c-2.466-3.656-2.424-7.525-.74-11.42a8.9,8.9,0,0,1,4.552-4.318,5.044,5.044,0,0,1,4.115-.089,18.432,18.432,0,0,1,3.48,1.672,55.005,55.005,0,0,1,7.863,5.865,21.593,21.593,0,0,0,2.838,1.924,9.061,9.061,0,0,1,8.249-.891,8.322,8.322,0,0,1,4.3,3.605,8.927,8.927,0,0,1-11.726,12.619A8.7,8.7,0,0,1,197.2,169.2c-.712-1.952-.676-2.985.1-6.482-2.407-2.2-4.591-4.651-7.284-6.533a7.409,7.409,0,0,0-5.111-1.591,2.8,2.8,0,0,0-2.189,1.241c-1.334,1.932-1.878,4.431.044,6.742,1.435,1.727,2.908,3.424,4.377,5.124,1.319,1.527,2.616,3.077,3.994,4.551,3.383,3.616,4.165,7.8,2.923,12.5a10.52,10.52,0,0,1-9.134,8.24c-2.545.387-5.105.607-7.517-.516a44.118,44.118,0,0,1-5.215-2.809,100.33,100.33,0,0,1-11.416-8.932l-7.852-6.815c-.143-.125-.265-.315-.431-.368-1.82-.586-2.953-2.1-4.38-3.22-.718-.562-1.393-1.177-2.125-1.8-.746.49-1.466.973-2.2,1.442a1.77,1.77,0,0,1-2.272.053c-.423.363-.813.718-1.223,1.048-1.837,1.479-3.673,2.96-5.524,4.422a13.91,13.91,0,0,1-1.247.8,7.57,7.57,0,0,1-8.979-.187,40.147,40.147,0,0,1-3.871-3.013,157.984,157.984,0,0,1-15.146-15.686,76.457,76.457,0,0,1-6.1-7.685c-1.451-2.221-1.412-3.147.365-5.156C100.18,144.113,100.633,143.706,101.169,143.169Zm52.085,29.905c.212.184.381.335.553.481,3.921,3.325,7.818,6.679,11.771,9.964a66.875,66.875,0,0,0,9.4,6.658,13.873,13.873,0,0,0,8.725,1.965c4.771-.534,7.938-3.1,9.184-7.72,1.15-4.266.44-8.045-2.622-11.331-1.479-1.587-2.886-3.244-4.3-4.887s-2.835-3.287-4.2-4.97c-2.5-3.07-1.379-6.511.531-8.628a3.369,3.369,0,0,1,1.532-.909,6.864,6.864,0,0,1,4.577.342,15.79,15.79,0,0,1,3.994,2.619c.949.794,1.868,1.624,2.749,2.391l1.842-1.653a4.932,4.932,0,0,0-.469-.427c-2.449-1.745-4.875-3.523-7.367-5.2a14.547,14.547,0,0,0-2.866-1.381,4.156,4.156,0,0,0-3.446-.008,8.254,8.254,0,0,0-4.1,3.971,11.19,11.19,0,0,0-.6,7.265,9.658,9.658,0,0,0,2.334,4.141c1.513,1.71,3.1,3.353,4.673,5.009.891.939,1.853,1.813,2.711,2.779a10.063,10.063,0,0,1,2.852,7.918c-.556,5.618-4.55,9.056-10.459,7.916a15.621,15.621,0,0,1-5.673-2.584,182.121,182.121,0,0,1-18.824-15.02c-.187-.165-.385-.318-.568-.47Zm-14.033-5.483c-.4.311-.771.634-1.177.9-1.36.9-2.69,1.862-4.109,2.662a7.469,7.469,0,0,1-8.3-.377,31.274,31.274,0,0,1-3.4-2.494c-1.945-1.7-3.837-3.473-5.687-5.278a154.876,154.876,0,0,1-11.979-13.623,1.653,1.653,0,0,1-.118-2.378c.181-.289.413-.547.6-.835.428-.678.312-1.159-.433-1.891-.868-.853-1.711-1.123-2.307-.736a.569.569,0,0,0-.083.079,28.449,28.449,0,0,0-2.1,2.087c-1.051,1.273-1.076,1.8-.08,3.142,1.45,1.952,2.919,3.9,4.5,5.747a173.4,173.4,0,0,0,16.271,17.111c1.163,1.036,2.364,2.04,3.622,2.957,3.339,2.435,5.655,2.461,9.116.219a56.1,56.1,0,0,0,6.995-5.671c.042-.039.033-.133.068-.29Zm12.085-7.612a12.724,12.724,0,0,0,.968-.837c.785-.827,1.567-1.662,2.314-2.523A11.668,11.668,0,0,0,156.98,152a8.377,8.377,0,0,0-.767-6.722c-.5-.854-1-1.71-1.519-2.549A190.61,190.61,0,0,0,141.9,124.94a15.421,15.421,0,0,0-2.546-2.6c-2.7-2.094-4.756-2.258-8-.188l1.8,1.994c.16-.065.3-.122.438-.175,2.547-.978,4.436-.421,5.91,1.464q.984,1.257,1.928,2.548,4.416,6.033,8.815,12.077c1.072,1.478,2.146,2.96,3.1,4.514a23.1,23.1,0,0,1,1.558,3.288,4.419,4.419,0,0,1-.609,4.431,10.006,10.006,0,0,1-.751,1c-1.171,1.3-2.358,2.588-3.541,3.878-.28.3-.565.6-.865.925Zm-8.5,9.52c.583-.4,1.334-.9,2.063-1.431,1.083-.79,1.109-.816,2.144.03,1.762,1.441,3.5,2.9,5.317,4.411a5.866,5.866,0,0,0,2.391-2.66c-1.358-1.647-2.683-3.262-4.018-4.87-.857-1.034-.884-1.367-.161-2.532.214-.344.42-.694.682-1.13-.955-.838-1.839-1.611-2.719-2.386a1.4,1.4,0,0,0-1.928-.088,40.519,40.519,0,0,0-7.633,7.114Zm55.55-5.98c-1.365,2.943-.142,7.634,3.673,9.656a7.889,7.889,0,0,0,8.96-12.852c-2.574-2.366-7.052-2.736-9.421-.647.381.324.776.618,1.122.962a1.707,1.707,0,0,0,1.826.465,5.225,5.225,0,0,1,5.851,2.723,5.333,5.333,0,0,1-.784,5.865,5.275,5.275,0,0,1-5.727,1.448,5.1,5.1,0,0,1-3.463-4.771,2.163,2.163,0,0,0-1.157-2.207C198.948,163.992,198.692,163.766,198.357,163.519Zm7.308,6.893a4.19,4.19,0,0,0,4.276-4.229,4.233,4.233,0,0,0-4.354-4.285,4.258,4.258,0,0,0,.079,8.515Zm-73.447-45.34c-1.376-3.073-4.659-3.7-6.9-1.357a1.088,1.088,0,0,0-.316.868,4.627,4.627,0,0,0,2.963,2.8,2.3,2.3,0,0,0,1.335-.091A6.493,6.493,0,0,0,132.218,125.072Zm-25.732,20.72a6.146,6.146,0,0,0,2.67-3.25,1.678,1.678,0,0,0-.417-1.788c-.865-.956-3.4-1.607-4.732-.5-.646.533-1.3,1.06-1.921,1.615a1.813,1.813,0,0,0-.278.564C104.636,142.656,105.737,143.428,106.486,145.792Zm96.027,16.016c-1.178-1.026-2.34-2.049-3.514-3.058-.766-.657-1.193-.7-2-.094a9.1,9.1,0,0,0-1.133,1.241c1.675,1.5,3.227,2.879,4.776,4.261C201.242,163.4,201.826,162.67,202.513,161.808Z" transform="translate(0 0)"/>
    <path id="Path_8620" data-name="Path 8620" d="M149.382,170.933l1.926-1.773c.183.152.381.306.568.47A182.123,182.123,0,0,0,170.7,184.65a15.621,15.621,0,0,0,5.673,2.584c5.909,1.141,9.9-2.3,10.459-7.916a10.063,10.063,0,0,0-2.852-7.918c-.859-.966-1.82-1.84-2.711-2.779-1.572-1.657-3.16-3.3-4.673-5.009a9.658,9.658,0,0,1-2.334-4.141,11.19,11.19,0,0,1,.6-7.265,8.254,8.254,0,0,1,4.1-3.971,4.156,4.156,0,0,1,3.446.008,14.547,14.547,0,0,1,2.866,1.381c2.492,1.682,4.918,3.459,7.367,5.2a4.936,4.936,0,0,1,.469.427l-1.842,1.653c-.881-.767-1.8-1.6-2.749-2.391a15.79,15.79,0,0,0-3.994-2.619,6.864,6.864,0,0,0-4.577-.342,3.369,3.369,0,0,0-1.532.909c-1.911,2.116-3.032,5.558-.531,8.628,1.37,1.683,2.787,3.327,4.2,4.97s2.823,3.3,4.3,4.887c3.062,3.286,3.772,7.064,2.622,11.331-1.246,4.623-4.413,7.186-9.184,7.72a13.873,13.873,0,0,1-8.725-1.965,66.874,66.874,0,0,1-9.4-6.658c-3.953-3.285-7.85-6.64-11.771-9.964C149.763,171.267,149.594,171.117,149.382,170.933Z" transform="translate(3.872 2.141)" fill="#fff"/>
    <path id="Path_8621" data-name="Path 8621" d="M139.154,165.918l1.4,1.332c-.034.157-.026.252-.068.29a56.1,56.1,0,0,1-6.995,5.671c-3.461,2.241-5.778,2.215-9.116-.219-1.258-.917-2.458-1.921-3.622-2.957a173.4,173.4,0,0,1-16.271-17.111c-1.579-1.847-3.048-3.795-4.5-5.747-1-1.34-.972-1.869.08-3.142a28.451,28.451,0,0,1,2.1-2.087.57.57,0,0,1,.083-.079c.6-.387,1.439-.117,2.307.736.745.733.861,1.214.433,1.891-.183.288-.415.546-.6.835a1.653,1.653,0,0,0,.118,2.378,154.875,154.875,0,0,0,11.979,13.623c1.851,1.805,3.742,3.574,5.687,5.278a31.272,31.272,0,0,0,3.4,2.494,7.469,7.469,0,0,0,8.3.377c1.419-.8,2.749-1.759,4.109-2.662C138.383,166.552,138.753,166.229,139.154,165.918Z" transform="translate(0.066 1.673)" fill="#fff"/>
    <path id="Path_8622" data-name="Path 8622" d="M148.979,159.907l-2.165-1.882c.3-.321.585-.621.865-.925,1.182-1.29,2.37-2.577,3.541-3.878a10,10,0,0,0,.751-1,4.419,4.419,0,0,0,.609-4.431,23.1,23.1,0,0,0-1.558-3.288c-.955-1.554-2.03-3.035-3.1-4.514q-4.387-6.054-8.815-12.077-.944-1.288-1.928-2.548c-1.474-1.885-3.363-2.442-5.91-1.464-.14.054-.278.111-.438.175l-1.8-1.994c3.247-2.07,5.3-1.905,8,.188a15.422,15.422,0,0,1,2.546,2.6,190.615,190.615,0,0,1,12.794,17.784c.523.839,1.021,1.695,1.519,2.549a8.377,8.377,0,0,1,.767,6.722,11.668,11.668,0,0,1-2.392,4.623c-.748.861-1.529,1.7-2.314,2.523A12.728,12.728,0,0,1,148.979,159.907Z" transform="translate(2.326 0.072)" fill="#fff"/>
    <path id="Path_8623" data-name="Path 8623" d="M139.944,166.758l-3.861-3.541a40.519,40.519,0,0,1,7.633-7.114,1.4,1.4,0,0,1,1.928.088c.88.776,1.763,1.548,2.719,2.386-.263.436-.468.785-.682,1.13-.723,1.164-.7,1.5.161,2.532,1.334,1.607,2.66,3.222,4.017,4.87a5.866,5.866,0,0,1-2.391,2.66c-1.813-1.506-3.555-2.971-5.317-4.411-1.035-.846-1.061-.82-2.144-.03C141.279,165.856,140.528,166.354,139.944,166.758Z" transform="translate(2.862 2.741)" fill="#fff"/>
    <path id="Path_8624" data-name="Path 8624" d="M191.34,160.792c.336.247.592.473.88.643a2.163,2.163,0,0,1,1.157,2.207,5.1,5.1,0,0,0,3.463,4.771,5.275,5.275,0,0,0,5.727-1.448,5.333,5.333,0,0,0,.784-5.865,5.225,5.225,0,0,0-5.851-2.723,1.707,1.707,0,0,1-1.826-.465c-.346-.344-.741-.638-1.122-.962,2.369-2.089,6.847-1.719,9.421.647a7.889,7.889,0,0,1-8.96,12.852C191.2,168.425,189.975,163.734,191.34,160.792Z" transform="translate(7.016 2.727)" fill="#fff"/>
    <path id="Path_8625" data-name="Path 8625" d="M198.392,167.432a4.258,4.258,0,1,1,4.276-4.229A4.192,4.192,0,0,1,198.392,167.432Z" transform="translate(7.272 2.98)" fill="#fff"/>
    <path id="Path_8626" data-name="Path 8626" d="M130.341,124.886a6.493,6.493,0,0,1-2.92,2.215,2.3,2.3,0,0,1-1.335.091,4.627,4.627,0,0,1-2.963-2.8,1.088,1.088,0,0,1,.316-.868C125.682,121.188,128.965,121.813,130.341,124.886Z" transform="translate(1.877 0.186)" fill="#fff"/>
    <path id="Path_8627" data-name="Path 8627" d="M106.244,144.38c-.749-2.364-1.85-3.135-4.677-3.362a1.813,1.813,0,0,1,.278-.564c.625-.555,1.275-1.082,1.921-1.615,1.336-1.1,3.867-.454,4.732.5a1.678,1.678,0,0,1,.417,1.788A6.147,6.147,0,0,1,106.244,144.38Z" transform="translate(0.242 1.412)" fill="#fff"/>
    <path id="Path_8628" data-name="Path 8628" d="M195.634,159.087c-.686.862-1.271,1.6-1.873,2.35-1.549-1.382-3.1-2.765-4.776-4.261a9.1,9.1,0,0,1,1.133-1.241c.809-.611,1.236-.564,2,.094C193.294,157.038,194.456,158.06,195.634,159.087Z" transform="translate(6.879 2.721)" fill="#fff"/>
  </g>
</svg>
