<svg xmlns="http://www.w3.org/2000/svg" width="60.835" height="51.634" viewBox="0 0 60.835 51.634">
  <g id="Group_3717" data-name="Group 3717" transform="translate(-259.2 -282.749)">
    <path id="Path_8561" data-name="Path 8561" d="M304.8,289.943l.332-.332.565-.566.317-.316a16.989,16.989,0,0,1,24.012-.023c6.627,6.627,4.888,15.628-1.739,22.255" transform="translate(-15.181 0)" fill="none" stroke="#ff5c01" stroke-linecap="round" stroke-linejoin="round" stroke-width="2"/>
    <path id="Path_8562" data-name="Path 8562" d="M269.189,325.008l.007.007.023.023.016.016.044.044.026.026.065.065.077.077,5.878,5.674" transform="translate(-3.058 -14.046)" fill="none" stroke="#ff5c01" stroke-linecap="round" stroke-linejoin="round" stroke-width="2"/>
    <path id="Path_8563" data-name="Path 8563" d="M281.158,326.3c2.4-2.372,6.207-6.133,9.932-9.812" transform="translate(-7.133 -11.144)" fill="none" stroke="#ff5c01" stroke-linecap="round" stroke-linejoin="round" stroke-width="2"/>
    <path id="Path_8564" data-name="Path 8564" d="M285.223,334.562c2.361-2.35,7.661-7.611,11.587-11.507" transform="translate(-8.517 -13.381)" fill="none" stroke="#ff5c01" stroke-linecap="round" stroke-linejoin="round" stroke-width="2"/>
    <path id="Path_8565" data-name="Path 8565" d="M291.954,341.093c1.733-1.725,7.337-7.3,11.5-11.443" transform="translate(-10.808 -15.627)" fill="none" stroke="#ff5c01" stroke-linecap="round" stroke-linejoin="round" stroke-width="2"/>
    <path id="Path_8566" data-name="Path 8566" d="M298.768,347.712l11.42-11.365" transform="translate(-13.128 -17.907)" fill="none" stroke="#ff5c01" stroke-linecap="round" stroke-linejoin="round" stroke-width="2"/>
    <path id="Path_8567" data-name="Path 8567" d="M280.25,329.2c-.732.725-1.333,1.32-1.758,1.743l16.293,15.73a2.074,2.074,0,0,0,2.907-.026l21.639-21.637" transform="translate(-6.225 -14.046)" fill="none" stroke="#ff5c01" stroke-linecap="square" stroke-miterlimit="10" stroke-width="2"/>
    <path id="Path_8568" data-name="Path 8568" d="M266.479,311.31l-.09-.09-.077-.077c-.024-.024-.046-.046-.067-.064l-.026-.026c-.018-.018-.031-.033-.044-.044l-.015-.017-.024-.022-.007-.007c-6.625-6.625-8.364-15.628-1.739-22.253a16.99,16.99,0,0,1,24.013.022c.1.1.219.217.316.316.189.189.377.377.567.565.11.11.22.222.332.332,5.169,5.171,7.051,7.05,12.276,12.274,3.4,3.171-3.195,6.594-6.592,3.421l-5.4-5.057a2.625,2.625,0,0,0-1.869-.776,2.9,2.9,0,0,0-1.2.29,8.3,8.3,0,0,1-3.7.894A8.055,8.055,0,0,1,277,298.182" transform="translate(0 -0.001)" fill="none" stroke="#ff5c01" stroke-linecap="round" stroke-linejoin="round" stroke-width="2"/>
  </g>
</svg>
