<svg xmlns="http://www.w3.org/2000/svg" width="56" height="55" viewBox="5.128 3.97 56 55"><g data-name="Phone Icon"><path d="M33.128 3.97c15.464 0 28 12.312 28 27.5s-12.536 27.5-28 27.5-28-12.312-28-27.5 12.536-27.5 28-27.5Z" fill="#fff" fill-rule="evenodd" data-name="Path 8172"/><g data-name="Layer 3"><g data-name="phone-call (1)"><g data-name="Group 2"><path d="m41.551 38.2-2.393-2.384a1.215 1.215 0 0 0-1.703 0l-1.518 1.556a.407.407 0 0 1-.536 0 41.149 41.149 0 0 1-3.23-2.866 38.245 38.245 0 0 1-2.89-3.213.39.39 0 0 1 0-.535l1.59-1.552a1.24 1.24 0 0 0 0-1.724l-2.393-2.393a1.265 1.265 0 0 0-1.724 0l-1.966 1.975s-.088.083-.118.117c-1.108 1.33.661 5.551 4.954 9.819 3.125 3.141 6.656 5.246 8.764 5.246.352.033.72-.009 1.013-.205.058-.042.222-.188.222-.188l1.928-1.937a1.222 1.222 0 0 0 0-1.716Z" fill="#ff5c01" fill-rule="evenodd" data-name="Path 7"/></g></g><path d="M33.775 27.952a3.905 3.905 0 0 1 3.901 3.901.65.65 0 1 0 1.3 0 5.207 5.207 0 0 0-5.2-5.201.65.65 0 1 0 0 1.3Z" fill="#ff5c01" fill-rule="evenodd" data-name="Path 5"/><path d="M33.775 24.701a7.16 7.16 0 0 1 7.152 7.152.65.65 0 0 0 1.3 0 8.462 8.462 0 0 0-8.452-8.452.65.65 0 1 0 0 1.3Z" fill="#ff5c01" fill-rule="evenodd" data-name="Path 6"/></g></g></svg>