<svg xmlns="http://www.w3.org/2000/svg" width="86" height="82" viewBox="1053 696.95 86 82"><g data-name="CompositeLayer"><path d="M0 40.9a43 41 0 1 1 0 .1z" fill-rule="evenodd" fill="url(&quot;#a&quot;)" transform="translate(1053 697)" data-name="Ellipse 1"/><g data-name="Group 3419"><path d="M1109.359 728.019V723h-1.655a11.02 11.02 0 0 0-10.288 7.08c-.469 1.23-.68 2.543-.68 3.86v11.796h12.623v-12.622h-6.649a.315.315 0 0 1-.302-.399c.766-2.756 2.573-4.696 6.951-4.696Z" fill="#fff" fill-rule="evenodd" data-name="Path 8176"/><path d="M1092.037 728.019V723h-1.655a11.02 11.02 0 0 0-10.288 7.08c-.47 1.23-.68 2.543-.68 3.86v11.796h12.623v-12.622h-6.65a.314.314 0 0 1-.302-.399c.767-2.756 2.574-4.696 6.952-4.696Z" fill="#fff" fill-rule="evenodd" data-name="Path 8177"/></g></g><defs><linearGradient x1=".07" y1=".39" x2="1.174" y2=".707" id="a"><stop stop-color="#f8994c" offset="0"/><stop stop-color="#ff5c01" offset="1"/></linearGradient></defs></svg>