<svg xmlns="http://www.w3.org/2000/svg" width="50.049" height="52.458" viewBox="0 0 50.049 52.458">
  <g id="Group_3724" data-name="Group 3724" transform="translate(-2188.307 -592.722)">
    <path id="Path_8574" data-name="Path 8574" d="M2192.329,600.07c-9.684,2.995,4.625,27.982,10.737,30.776" transform="translate(0 -4.47)" fill="none" stroke="#ff5c01" stroke-miterlimit="10" stroke-width="1.5"/>
    <path id="Path_8575" data-name="Path 8575" d="M2243.292,600.072c9.694,3-4.629,28.043-10.749,30.843" transform="translate(-29.463 -4.472)" fill="none" stroke="#ff5c01" stroke-miterlimit="10" stroke-width="1.5"/>
    <g id="Group_3723" data-name="Group 3723" transform="translate(2203.101 621.628)">
      <path id="Path_8576" data-name="Path 8576" d="M2259.281,699.41A5.411,5.411,0,0,1,2253.87,694v-8a5.219,5.219,0,0,0-5.219-5.219h0a5.219,5.219,0,0,0-5.219,5.219v11.286a5.413,5.413,0,0,1-5.413,5.413h0a5.413,5.413,0,0,1-5.413-5.413V684.892" transform="translate(-2232.606 -680.781)" fill="none" stroke="#ff5c01" stroke-miterlimit="10" stroke-width="1.5"/>
    </g>
    <circle id="Ellipse_9" data-name="Ellipse 9" cx="4.229" cy="4.229" r="4.229" transform="translate(2229.149 635.973)" fill="none" stroke="#ff5c01" stroke-miterlimit="10" stroke-width="1.5"/>
    <path id="Path_8577" data-name="Path 8577" d="M2326.149,737.719a.313.313,0,1,1-.313-.313A.313.313,0,0,1,2326.149,737.719Z" transform="translate(-92.457 -97.518)" fill="none" stroke="#ff5c01" stroke-miterlimit="10" stroke-width="1.5"/>
    <path id="Path_8578" data-name="Path 8578" d="M2203.267,597.66h-1.919a2.094,2.094,0,0,1-2.094-2.094h0a2.094,2.094,0,0,1,2.094-2.094h1.919a2.094,2.094,0,0,1,2.094,2.094h0A2.094,2.094,0,0,1,2203.267,597.66Z" transform="translate(-6.908)" fill="none" stroke="#ff5c01" stroke-miterlimit="10" stroke-width="1.5"/>
    <path id="Path_8579" data-name="Path 8579" d="M2248.9,597.66h1.92a2.094,2.094,0,0,0,2.094-2.094h0a2.094,2.094,0,0,0-2.094-2.094h-1.92a2.094,2.094,0,0,0-2.094,2.094h0A2.094,2.094,0,0,0,2248.9,597.66Z" transform="translate(-39.123)" fill="none" stroke="#ff5c01" stroke-miterlimit="10" stroke-width="1.5"/>
  </g>
</svg>
