<svg xmlns="http://www.w3.org/2000/svg" width="47.168" height="60.964" viewBox="0 0 47.168 60.964">
  <g id="Group_3718" data-name="Group 3718" transform="translate(-274 -795.934)">
    <path id="Path_8569" data-name="Path 8569" d="M296.733,855.684a1.922,1.922,0,0,0,1.7,0c4.113-2.015,21.733-11.279,21.733-22.143V808.292A1.976,1.976,0,0,0,318.8,806.4a103.309,103.309,0,0,1-20.215-9.162,1.963,1.963,0,0,0-2,0,103.313,103.313,0,0,1-20.215,9.162A1.976,1.976,0,0,0,275,808.292V833.54C275,844.4,292.619,853.669,296.733,855.684Z" transform="translate(0 0)" fill="none" stroke="#ff5c01" stroke-linecap="round" stroke-linejoin="round" stroke-width="2"/>
    <circle id="Ellipse_4" data-name="Ellipse 4" cx="14" cy="14" r="14" transform="translate(283.584 812.425)" fill="none" stroke="#ff5c01" stroke-linecap="round" stroke-linejoin="round" stroke-width="2"/>
    <path id="Path_8570" data-name="Path 8570" d="M401,982.9l3.928,3.928,7.855-7.855" transform="translate(-108.326 -156.471)" fill="none" stroke="#ff5c01" stroke-linecap="round" stroke-linejoin="round" stroke-width="2"/>
  </g>
</svg>
