<svg xmlns="http://www.w3.org/2000/svg" width="81" height="111.753" viewBox="0 0 81 111.753">
  <g id="Group_3734" data-name="Group 3734" transform="translate(-49.291 -10.5)">
    <g id="Group_3729" data-name="Group 3729" transform="translate(67.093 106.731)">
      <path id="Path_8583" data-name="Path 8583" d="M98.934,266.25a8.9,8.9,0,0,1-2.914-.505,3.131,3.131,0,0,1-1.77-1.481c-.2-.389-.462-.752-.645-1.149a3.468,3.468,0,0,1,.467-3.91,10.669,10.669,0,0,1,2.323-2.007,38.343,38.343,0,0,1,5.195-2.862,39.152,39.152,0,0,1,7.454-2.764,8.57,8.57,0,0,1,3.322-.279,4.7,4.7,0,0,1,4,3.18,3.579,3.579,0,0,1-.754,3.794,7.269,7.269,0,0,1-1.155,1.013,49.213,49.213,0,0,1-11.817,6.254A12.1,12.1,0,0,1,98.934,266.25Zm9.346-5.553a6.716,6.716,0,0,0-4.511-6.244.946.946,0,0,0-.79.037c-.658.324-1.326.627-1.987.943a27.987,27.987,0,0,0-4.529,2.6,14.374,14.374,0,0,0-1.844,1.641,2.523,2.523,0,0,0-.707,1.91,3.85,3.85,0,0,0,2.583,3.441,8.177,8.177,0,0,0,4.559.11,31.33,31.33,0,0,0,6.853-2.8.569.569,0,0,0,.248-.377C108.22,261.539,108.241,261.116,108.279,260.7Zm-4.461-6.581a7.5,7.5,0,0,1,3.832,3.054,7.318,7.318,0,0,1,.982,4.73,1.9,1.9,0,0,0,.288-.087,42.709,42.709,0,0,0,5.759-3.628,3.207,3.207,0,0,0,.525-4.47,4.405,4.405,0,0,0-2.745-1.681,6.911,6.911,0,0,0-2.458.082,26.612,26.612,0,0,0-4.52,1.345C104.959,253.654,104.443,253.869,103.819,254.116Z" transform="translate(-93.209 -251.228)" stroke="#b1aeae" stroke-width="1"/>
      <path id="Path_8584" data-name="Path 8584" d="M109.334,265.462c-.038.419-.059.842-.125,1.256a.57.57,0,0,1-.248.377,31.327,31.327,0,0,1-6.853,2.8,8.177,8.177,0,0,1-4.559-.11,3.85,3.85,0,0,1-2.583-3.441,2.523,2.523,0,0,1,.707-1.91,14.372,14.372,0,0,1,1.844-1.641,27.986,27.986,0,0,1,4.529-2.6c.661-.316,1.329-.619,1.987-.943a.946.946,0,0,1,.79-.037A6.716,6.716,0,0,1,109.334,265.462Z" transform="translate(-94.264 -255.993)" fill="#fff" stroke="#b1aeae" stroke-width="1"/>
      <path id="Path_8585" data-name="Path 8585" d="M119.833,255.214c.624-.247,1.14-.462,1.664-.657a26.612,26.612,0,0,1,4.52-1.345,6.911,6.911,0,0,1,2.458-.082,4.405,4.405,0,0,1,2.745,1.681,3.207,3.207,0,0,1-.525,4.47,42.712,42.712,0,0,1-5.759,3.628,1.9,1.9,0,0,1-.288.087,7.318,7.318,0,0,0-.982-4.73A7.5,7.5,0,0,0,119.833,255.214Z" transform="translate(-109.223 -252.326)" fill="#fff" stroke="#b1aeae" stroke-width="1"/>
    </g>
    <g id="Group_3730" data-name="Group 3730" transform="translate(49.791 98.189)">
      <path id="Path_8586" data-name="Path 8586" d="M63.1,229.792a6.591,6.591,0,0,1,3.246.7,3.706,3.706,0,0,1,1.892,4.136,2.117,2.117,0,0,1-.826,1.247,9.292,9.292,0,0,1-2.373,1.24,43.515,43.515,0,0,1-7.454,2.436,9.353,9.353,0,0,1-4.411.062,5.23,5.23,0,0,1-2.821-1.8,2.365,2.365,0,0,1-.557-1.626c.026-.548.051-1.1.1-1.644a2.292,2.292,0,0,1,1.365-1.869,13.043,13.043,0,0,1,1.664-.715,43.952,43.952,0,0,1,8.2-2C61.778,229.86,62.441,229.844,63.1,229.792Zm-3.682,1.06c-.01.043-.02.086-.029.128a5.139,5.139,0,0,1,2.86,3.895c.24-.069.413-.118.585-.17,1.087-.328,2.173-.658,3.262-.982a.6.6,0,0,1,.574,0c-.049.073-.069.136-.108.154a8.29,8.29,0,0,1-1.012.422c-2.674.773-5.345,1.561-8.034,2.281a9.9,9.9,0,0,1-3.918.385,3.22,3.22,0,0,1-2.576-1.563.9.9,0,0,1-.055-.267,1.811,1.811,0,0,1,.531.491,2.835,2.835,0,0,0,1.883,1.027,5.978,5.978,0,0,0,2.3-.072c1.675-.394,3.34-.829,5.008-1.252a3.742,3.742,0,0,0,.409-.162,10.6,10.6,0,0,0-.43-1.2,5.471,5.471,0,0,0-2.941-2.6.916.916,0,0,0-.524-.028A30.207,30.207,0,0,0,51.911,233a3.946,3.946,0,0,0-.764.43,1.743,1.743,0,0,0-.785,1.548c.017.366.012.734,0,1.1a2.1,2.1,0,0,0,.576,1.5,4.724,4.724,0,0,0,2.569,1.5,8.6,8.6,0,0,0,3.6-.058,33.33,33.33,0,0,0,5.828-1.765c1.227-.481,2.44-1,3.642-1.54a1.747,1.747,0,0,0,1.081-1.426,3.059,3.059,0,0,0-1.878-3.386,4.461,4.461,0,0,0-.987-.327,12.451,12.451,0,0,0-4.1.052C60.265,230.683,59.842,230.776,59.417,230.853Zm-1.27.329a5.844,5.844,0,0,1,3.276,3.934l.472-.168a9.966,9.966,0,0,0-.22-.973,5.113,5.113,0,0,0-2.835-2.9A.63.63,0,0,0,58.147,231.182Z" transform="translate(-49.791 -229.792)" stroke="#b1aeae" stroke-width="1"/>
      <path id="Path_8587" data-name="Path 8587" d="M60.277,231.8c.425-.077.848-.169,1.276-.228a12.45,12.45,0,0,1,4.1-.052,4.461,4.461,0,0,1,.987.327,3.059,3.059,0,0,1,1.878,3.386,1.747,1.747,0,0,1-1.081,1.426c-1.2.54-2.415,1.058-3.642,1.54a33.33,33.33,0,0,1-5.828,1.765,8.6,8.6,0,0,1-3.6.058,4.724,4.724,0,0,1-2.569-1.5,2.1,2.1,0,0,1-.576-1.5c.013-.367.017-.735,0-1.1a1.743,1.743,0,0,1,.785-1.548,3.946,3.946,0,0,1,.764-.43,30.206,30.206,0,0,1,5.287-1.659.916.916,0,0,1,.524.028,5.471,5.471,0,0,1,2.941,2.6,10.6,10.6,0,0,1,.43,1.2,3.745,3.745,0,0,1-.409.162c-1.668.422-3.333.858-5.008,1.252a5.978,5.978,0,0,1-2.3.072,2.835,2.835,0,0,1-1.883-1.027,1.811,1.811,0,0,0-.531-.491.9.9,0,0,0,.055.267,3.22,3.22,0,0,0,2.576,1.563,9.9,9.9,0,0,0,3.918-.385c2.689-.72,5.36-1.508,8.034-2.281a8.287,8.287,0,0,0,1.012-.422c.039-.018.059-.081.108-.154a.6.6,0,0,0-.574,0c-1.088.325-2.175.655-3.262.982-.173.052-.346.1-.585.17a5.139,5.139,0,0,0-2.86-3.895C60.257,231.889,60.267,231.846,60.277,231.8Z" transform="translate(-50.651 -230.743)" fill="#fff" stroke="#b1aeae" stroke-width="1"/>
      <path id="Path_8588" data-name="Path 8588" d="M70.759,233.027a.63.63,0,0,1,.694-.1,5.113,5.113,0,0,1,2.835,2.9,9.969,9.969,0,0,1,.22.973l-.472.168A5.844,5.844,0,0,0,70.759,233.027Z" transform="translate(-62.403 -231.637)" fill="#fff" stroke="#b1aeae" stroke-width="1"/>
    </g>
    <g id="Group_3731" data-name="Group 3731" transform="translate(96.437 105.697)">
      <path id="Path_8589" data-name="Path 8589" d="M175.789,248.634a14.709,14.709,0,0,1,4.4.565,8.323,8.323,0,0,1,2.066,1.009,3.24,3.24,0,0,1,1.47,2.836,3.629,3.629,0,0,1-1.364,3.025,9.141,9.141,0,0,1-4.846,2.154,16.535,16.535,0,0,1-6.6-.336,7.337,7.337,0,0,1-2.216-.938,7.518,7.518,0,0,1-.867-.673,2.818,2.818,0,0,1-.978-2.445,3.4,3.4,0,0,1,1.283-2.559,11.147,11.147,0,0,1,5.466-2.4C174.469,248.735,175.348,248.681,175.789,248.634Zm1.783,6.291c-.2-.369-.348-.68-.522-.978a14.709,14.709,0,0,0-2.406-3.067c-.379-.372-.786-.717-1.182-1.072a.612.612,0,0,0-.607-.137,10.945,10.945,0,0,0-4.011,1.865,2.883,2.883,0,0,0-1.381,2.369.464.464,0,0,1-.018.108,1.6,1.6,0,0,0,.457,1.555,6.019,6.019,0,0,0,2.805,1.66,15.584,15.584,0,0,0,7.353.289,7.6,7.6,0,0,0,4.372-2.476,1.751,1.751,0,0,0,.5-1.186c0-.678-.036-1.356-.052-2.034a.662.662,0,0,0-.275-.51,7.408,7.408,0,0,0-2.663-1.5,13.3,13.3,0,0,0-4.845-.471,5.226,5.226,0,0,0-.543.1,14.867,14.867,0,0,1,4.279,5.177c.139-.031.247-.046.351-.08a7.308,7.308,0,0,0,2.328-1.214c.127-.1.241-.282.463-.189a1.324,1.324,0,0,1-.736.852,9.217,9.217,0,0,1-2.653,1.035,18.336,18.336,0,0,1-6.4.306,10.626,10.626,0,0,1-2.862-.76,2.482,2.482,0,0,1-1.1-.8.864.864,0,0,1-.084-.237,13.63,13.63,0,0,0,1.3.824,6.484,6.484,0,0,0,1.3.44,16.565,16.565,0,0,0,5.632.318C176.758,255.073,177.132,254.994,177.572,254.925Zm.946-.194a3.728,3.728,0,0,0-.134-.357c-.132-.262-.257-.528-.412-.777a15.5,15.5,0,0,0-3.569-3.936.648.648,0,0,0-.778-.085,15.815,15.815,0,0,1,4.265,5.29Z" transform="translate(-166.844 -248.634)" stroke="#b1aeae" stroke-width="1"/>
      <path id="Path_8590" data-name="Path 8590" d="M178.4,255.922c-.441.069-.815.148-1.192.184a16.564,16.564,0,0,1-5.632-.318,6.485,6.485,0,0,1-1.3-.44,13.627,13.627,0,0,1-1.3-.825.863.863,0,0,0,.084.237,2.482,2.482,0,0,0,1.1.8,10.625,10.625,0,0,0,2.862.76,18.336,18.336,0,0,0,6.4-.306,9.218,9.218,0,0,0,2.653-1.035,1.324,1.324,0,0,0,.736-.852c-.222-.093-.336.088-.463.189a7.308,7.308,0,0,1-2.328,1.214c-.1.033-.212.049-.351.08a14.867,14.867,0,0,0-4.279-5.177,5.221,5.221,0,0,1,.543-.1,13.3,13.3,0,0,1,4.845.471,7.408,7.408,0,0,1,2.663,1.5.662.662,0,0,1,.275.51c.016.678.052,1.356.052,2.034a1.751,1.751,0,0,1-.5,1.186,7.6,7.6,0,0,1-4.372,2.476,15.584,15.584,0,0,1-7.353-.289,6.019,6.019,0,0,1-2.805-1.66,1.6,1.6,0,0,1-.457-1.555.463.463,0,0,0,.018-.108,2.883,2.883,0,0,1,1.381-2.369,10.945,10.945,0,0,1,4.011-1.865.612.612,0,0,1,.607.137c.4.355.8.7,1.182,1.072a14.709,14.709,0,0,1,2.406,3.067C178.056,255.242,178.208,255.553,178.4,255.922Z" transform="translate(-167.676 -249.631)" fill="#fff" stroke="#b1aeae" stroke-width="1"/>
      <path id="Path_8591" data-name="Path 8591" d="M188.755,256.013l-.627.135a15.815,15.815,0,0,0-4.265-5.29.648.648,0,0,1,.778.085,15.5,15.5,0,0,1,3.569,3.936c.155.248.28.515.412.777A3.73,3.73,0,0,1,188.755,256.013Z" transform="translate(-177.081 -249.916)" fill="#fff" stroke="#b1aeae" stroke-width="1"/>
    </g>
    <g id="Group_3732" data-name="Group 3732" transform="translate(118.151 99.746)">
      <path id="Path_8592" data-name="Path 8592" d="M228.286,233.7a12.11,12.11,0,0,1,3.088.543,1.89,1.89,0,0,1,1.482,1.818.415.415,0,0,0,.018.108,2.049,2.049,0,0,1-.817,2.319,8.416,8.416,0,0,1-3.035,1.609,10.124,10.124,0,0,1-5.316.192,5.182,5.182,0,0,1-1.406-.595,1.984,1.984,0,0,1-.942-1.58,2.663,2.663,0,0,1,1.085-2.494,7.407,7.407,0,0,1,3.349-1.567C226.611,233.882,227.454,233.815,228.286,233.7Zm.529.659c-.681.043-1.175.061-1.667.107a8.081,8.081,0,0,0-3.718,1.231,3.935,3.935,0,0,0-1.119,1.035c-.616.917-.716,2.314.773,2.8.243.08.484.171.732.233a8.541,8.541,0,0,0,2.511.215,9.076,9.076,0,0,0,4.429-1.312,4.84,4.84,0,0,0,1.387-1.237.824.824,0,0,0,.19-.816,1.338,1.338,0,0,1-.058-.379,1.437,1.437,0,0,0-1.214-1.427C230.26,234.626,229.45,234.485,228.815,234.359Z" transform="translate(-221.334 -233.7)" stroke="#b1aeae" stroke-width="1"/>
      <path id="Path_8593" data-name="Path 8593" d="M229.649,235.355c.635.126,1.445.267,2.245.45a1.437,1.437,0,0,1,1.214,1.427,1.337,1.337,0,0,0,.058.379.824.824,0,0,1-.19.816,4.84,4.84,0,0,1-1.387,1.237,9.076,9.076,0,0,1-4.429,1.312,8.54,8.54,0,0,1-2.511-.215c-.248-.062-.489-.153-.732-.233-1.49-.487-1.39-1.885-.773-2.8a3.935,3.935,0,0,1,1.119-1.035,8.081,8.081,0,0,1,3.718-1.231C228.473,235.416,228.968,235.4,229.649,235.355Zm-6.016,3.122a1.8,1.8,0,0,0,1.2.72,14.192,14.192,0,0,0,2.243.108,8.2,8.2,0,0,0,4.159-1.264,6.258,6.258,0,0,0,.9-.8c.068-.067.063-.208.092-.316l-.1-.065c-.164.136-.336.263-.49.41a5.86,5.86,0,0,1-2.21,1.3,10.626,10.626,0,0,1-3.075.533,3.985,3.985,0,0,1-2.573-.6C223.743,238.473,223.682,238.483,223.632,238.477Z" transform="translate(-222.168 -234.695)" fill="#fff" stroke="#b1aeae" stroke-width="1"/>
      <path id="Path_8594" data-name="Path 8594" d="M225.009,240.752c.049.006.111,0,.147.022a3.985,3.985,0,0,0,2.573.6,10.625,10.625,0,0,0,3.075-.533,5.86,5.86,0,0,0,2.21-1.3c.153-.147.326-.274.49-.41l.1.065c-.029.107-.024.249-.092.316a6.255,6.255,0,0,1-.9.8,8.2,8.2,0,0,1-4.159,1.264,14.194,14.194,0,0,1-2.243-.108A1.8,1.8,0,0,1,225.009,240.752Z" transform="translate(-223.545 -236.971)" stroke="#b1aeae" stroke-width="1"/>
    </g>
    <g id="Group_3733" data-name="Group 3733" transform="translate(65.168 11)">
      <path id="Path_8595" data-name="Path 8595" d="M89.574,61.747c-.072-4.3-.175-8.59-.208-12.885-.034-4.46,0-8.921.008-13.382,0-1.083.031-2.166.026-3.249a.746.746,0,0,0-.192-.479,2.9,2.9,0,0,1-.818-2.407c.2-3.076.36-6.156.508-9.235a3.436,3.436,0,0,1,1.2-2.444A13.415,13.415,0,0,1,93.069,15.6a34.213,34.213,0,0,1,7.038-2.638,56.513,56.513,0,0,1,8.868-1.576A69.2,69.2,0,0,1,116.449,11a64.4,64.4,0,0,1,14.885,1.74,35.615,35.615,0,0,1,9.024,3.408,26.5,26.5,0,0,1,2.266,1.457,6.478,6.478,0,0,1,1.038.979,1.219,1.219,0,0,1,.317,1.168,2.833,2.833,0,0,0-.01.822q.24,4.178.486,8.355c.015.256.008.514.027.77A2.075,2.075,0,0,1,144,31.226a2.426,2.426,0,0,0-.526,1.524q-.1,9.8-.23,19.605-.158,12.253-.33,24.506c-.055,3.928-.173,7.856-.164,11.784a7.6,7.6,0,0,1-2.293,5.475,17.912,17.912,0,0,1-5.572,3.867,40.96,40.96,0,0,1-9.866,2.979,50.7,50.7,0,0,1-10.962.75,43.834,43.834,0,0,1-14.92-2.971,21.439,21.439,0,0,1-6.12-3.644,14.1,14.1,0,0,1-2.16-2.343,3.064,3.064,0,0,1-.622-2.054c.046-.84-.046-1.686-.072-2.53-.063-2.037-.14-4.073-.181-6.11q-.2-9.8-.379-19.6c0-.239,0-.477,0-.716Zm.584-7.072c0,.22,0,.4,0,.58q.054,3.579.11,7.158.182,11.2.366,22.408a.712.712,0,0,0,.007.219,1,1,0,0,0,.2.421A19.626,19.626,0,0,0,92.962,87.2a37.884,37.884,0,0,0,9.808,4.512A48.734,48.734,0,0,0,114.4,93.345a45.18,45.18,0,0,0,11.857-1.081,42.049,42.049,0,0,0,11.188-4.183,21.217,21.217,0,0,0,4.458-3.2.9.9,0,0,0,.3-.713q.039-4.488.1-8.975.111-9.856.22-19.713c0-.211,0-.422,0-.709a16.993,16.993,0,0,1-3.615,2.026,46.865,46.865,0,0,1-9.034,2.917,61.52,61.52,0,0,1-10.241,1.34,73.331,73.331,0,0,1-7.54-.051,59.555,59.555,0,0,1-9.589-1.25A32.7,32.7,0,0,1,90.158,54.675Zm26.109-16.623c2.869-.036,5.724-.195,8.574-.506a63.969,63.969,0,0,0,8.871-1.566,27.075,27.075,0,0,0,7.062-2.852,15.11,15.11,0,0,0,2.852-2.319c.176-.172.367-.352.3-.666a4.875,4.875,0,0,1-.093-.87q-.1-2.448-.189-4.9c-.053-1.54-.092-3.081-.149-4.621a.837.837,0,0,0-.161-.438,6.563,6.563,0,0,0-1.662-1.51,28.3,28.3,0,0,0-6.921-3.322,58.224,58.224,0,0,0-16.821-2.746,69.151,69.151,0,0,0-10.056.458,52.887,52.887,0,0,0-8.83,1.777,30.827,30.827,0,0,0-6.156,2.488,10.636,10.636,0,0,0-2.68,2,2.391,2.391,0,0,0-.791,1.407c-.108,1.684-.161,3.373-.231,5.059-.069,1.669-.139,3.337-.187,5.007a1.061,1.061,0,0,0,.193.658,10.046,10.046,0,0,0,1.276,1.354,17.126,17.126,0,0,0,4.76,2.6,50.458,50.458,0,0,0,14.556,3.179C111.937,37.906,114.1,37.948,116.267,38.052ZM142.7,39.334a17,17,0,0,1-3.721,2.028,57.724,57.724,0,0,1-17.16,4.062c-1.642.154-3.3.192-4.946.263a53.193,53.193,0,0,1-9.223-.447A49.9,49.9,0,0,1,97.4,42.789a31.458,31.458,0,0,1-6.511-3.046c-.259-.165-.514-.336-.848-.556-.011.29-.026.5-.025.714q.024,4.735.054,9.47c.01,1.431.044,2.863.049,4.294a.758.758,0,0,0,.385.723c.639.4,1.247.842,1.9,1.217a31.619,31.619,0,0,0,6.468,2.733,48.956,48.956,0,0,0,8.541,1.791,61.725,61.725,0,0,0,7.02.52c2.036.017,4.075-.006,6.107-.111,1.7-.088,3.4-.259,5.087-.509,1.847-.274,3.687-.621,5.506-1.041A39.5,39.5,0,0,0,141.2,55.248c.3-.166.591-.369.879-.563a1,1,0,0,0,.466-.914c.035-4.588.1-9.176.151-13.764C142.7,39.828,142.7,39.649,142.7,39.334Zm-.578,47.253a13.914,13.914,0,0,1-1.175,1.107,30.6,30.6,0,0,1-5.791,3.476,46.975,46.975,0,0,1-17.931,3.937,55,55,0,0,1-6.71-.189,41.4,41.4,0,0,1-8.838-1.694,33.346,33.346,0,0,1-9.706-4.708c-.409-.3-.79-.63-1.2-.96a.6.6,0,0,0-.049.159c.013.862.036,1.725.042,2.587a3.647,3.647,0,0,0,1.033,2.536c.562.6,1.114,1.223,1.732,1.765a21.144,21.144,0,0,0,6.7,3.824,45.25,45.25,0,0,0,14.819,2.633,49.811,49.811,0,0,0,10.454-.874,38.89,38.89,0,0,0,9.413-2.951,16.769,16.769,0,0,0,5.288-3.791,6.227,6.227,0,0,0,1.921-4.316C142.114,88.276,142.118,87.423,142.118,86.587Zm.613-54.078c-.715.483-1.344.958-2.019,1.354a24.755,24.755,0,0,1-5.7,2.428,63.412,63.412,0,0,1-14.856,2.289,73.42,73.42,0,0,1-15.685-.842,49.921,49.921,0,0,1-8.038-2.016,22.484,22.484,0,0,1-6.092-3.005,1.258,1.258,0,0,0-.267-.1c0,1.266.018,2.473-.01,3.679a.944.944,0,0,0,.43.873A26.142,26.142,0,0,0,94.481,39.6a36.143,36.143,0,0,0,8.56,2.748,68.212,68.212,0,0,0,12.177,1.327,64.39,64.39,0,0,0,12.988-.858,46.08,46.08,0,0,0,10.514-3.108,18.465,18.465,0,0,0,3.466-1.9,1.087,1.087,0,0,0,.548-1.031c-.047-.989-.007-1.981,0-2.972C142.731,33.389,142.73,32.97,142.73,32.509ZM90.116,37.424c-.02.033-.051.062-.052.092-.01.275,0,.552-.027.825a.565.565,0,0,0,.322.575,30.457,30.457,0,0,0,4.6,2.473,51.013,51.013,0,0,0,19.5,3.932,70.3,70.3,0,0,0,12.495-.95,54.6,54.6,0,0,0,11.265-3.1,21.581,21.581,0,0,0,3.924-1.971,1.177,1.177,0,0,0,.522-1.431c-.15.1-.265.181-.385.253a26.92,26.92,0,0,1-2.353,1.413c-1.238.592-2.507,1.133-3.8,1.6a53.419,53.419,0,0,1-17.106,2.96,76.3,76.3,0,0,1-10.769-.507,58.753,58.753,0,0,1-7.945-1.449A28.839,28.839,0,0,1,91.486,38.4C91.019,38.093,90.573,37.751,90.116,37.424Zm.589,48.545a1.139,1.139,0,0,0,.31,1.182c.4.352.8.707,1.221,1.024a29.215,29.215,0,0,0,5.749,3.213,40,40,0,0,0,13.632,3.188,54.061,54.061,0,0,0,7.151.027,51.158,51.158,0,0,0,9.014-1.346A35.476,35.476,0,0,0,139.9,87.949a7.95,7.95,0,0,0,2.085-1.933c.234-.342.261-.357.1-.819a20.643,20.643,0,0,1-4.305,3.131A43.678,43.678,0,0,1,119.9,93.665a45.355,45.355,0,0,1-6.985.041,65.1,65.1,0,0,1-7.367-.883,31.553,31.553,0,0,1-7.764-2.532A25.571,25.571,0,0,1,90.706,85.969Z" transform="translate(-88.378 -11)" stroke="#b1aeae" stroke-width="1"/>
      <path id="Path_8596" data-name="Path 8596" d="M92.842,120.6a32.7,32.7,0,0,0,12.341,5.076,59.554,59.554,0,0,0,9.589,1.25,73.335,73.335,0,0,0,7.54.051,61.521,61.521,0,0,0,10.241-1.34,46.865,46.865,0,0,0,9.034-2.917,16.993,16.993,0,0,0,3.615-2.026c0,.288,0,.5,0,.709q-.109,9.856-.22,19.713-.05,4.487-.1,8.975a.9.9,0,0,1-.3.713,21.217,21.217,0,0,1-4.458,3.2,42.048,42.048,0,0,1-11.187,4.183,45.18,45.18,0,0,1-11.857,1.081,48.735,48.735,0,0,1-11.629-1.633,37.885,37.885,0,0,1-9.808-4.512,19.624,19.624,0,0,1-2.124-1.739,1,1,0,0,1-.2-.421.712.712,0,0,1-.007-.219q-.184-11.2-.366-22.408-.059-3.579-.11-7.158C92.839,121,92.842,120.818,92.842,120.6Z" transform="translate(-91.062 -76.923)" fill="#fff" stroke="#b1aeae" stroke-width="1"/>
      <path id="Path_8597" data-name="Path 8597" d="M117.2,39.125c-2.163-.1-4.33-.146-6.486-.322a50.458,50.458,0,0,1-14.556-3.179,17.126,17.126,0,0,1-4.76-2.6,10.046,10.046,0,0,1-1.276-1.354,1.061,1.061,0,0,1-.193-.658c.048-1.669.119-3.338.187-5.007.07-1.687.123-3.375.231-5.059a2.391,2.391,0,0,1,.791-1.407,10.636,10.636,0,0,1,2.68-2,30.826,30.826,0,0,1,6.156-2.488,52.887,52.887,0,0,1,8.83-1.777,69.151,69.151,0,0,1,10.056-.458,58.224,58.224,0,0,1,16.821,2.746,28.294,28.294,0,0,1,6.921,3.322,6.563,6.563,0,0,1,1.662,1.51.837.837,0,0,1,.161.438c.057,1.54.1,3.081.149,4.621q.085,2.449.189,4.9a4.877,4.877,0,0,0,.093.87c.071.314-.12.494-.3.666A15.11,15.11,0,0,1,141.7,34.2a27.075,27.075,0,0,1-7.062,2.852,63.97,63.97,0,0,1-8.871,1.566C122.921,38.93,120.066,39.089,117.2,39.125Zm-26.039-17.4c.013.159-.009.261.032.313a3.391,3.391,0,0,0,.441.487,17.769,17.769,0,0,0,3.092,2.191,30.265,30.265,0,0,0,5.947,2.42,55.567,55.567,0,0,0,14.661,2.078,61.935,61.935,0,0,0,10.15-.635,53.51,53.51,0,0,0,10.3-2.477,31.914,31.914,0,0,0,6.391-3.048,15.37,15.37,0,0,0,1.317-.989c.1-.082.239-.2.065-.383a2.853,2.853,0,0,0-.276.152c-.465.326-.911.683-1.394.98a31.363,31.363,0,0,1-5.789,2.783,53.125,53.125,0,0,1-10.331,2.562,63.061,63.061,0,0,1-7.065.636,64.285,64.285,0,0,1-10.652-.531,46.9,46.9,0,0,1-7.1-1.466A24.325,24.325,0,0,1,91.441,21.9,2.52,2.52,0,0,0,91.158,21.722Zm5.56,6.011a3.82,3.82,0,0,0-.071.507c-.008.77,0,1.539,0,2.309,0,.953,0,1.906,0,2.859,0,.184-.057.4.179.522C97.016,33.5,97.02,28.173,96.718,27.733Zm37.684,7.08c.272-.409.317-2.73.22-5.357a2.849,2.849,0,0,0-.068-.393l-.126-.009a1.673,1.673,0,0,0-.093.378q-.022,2.467-.024,4.934A2.189,2.189,0,0,0,134.4,34.813ZM105.034,35.98a2.91,2.91,0,0,0,.086-.477q.011-2.5,0-5.009a.793.793,0,0,0-.1-.262c-.257.032-.236.2-.237.339,0,1.633,0,3.266.006,4.9A.465.465,0,0,0,105.034,35.98Zm13.417.921.144-.028a1.2,1.2,0,0,0,.056-.249q.029-2.419.046-4.838a2.165,2.165,0,0,0-.094-.449c-.291.053-.278.232-.277.39q.009,2.392.028,4.784A1.706,1.706,0,0,0,118.451,36.9Zm4.292-5.889a6.792,6.792,0,0,0-.078.709c-.014,1.372-.018,2.745-.024,4.118a4.749,4.749,0,0,0,.015.6c.01.081.1.152.171.256A24.925,24.925,0,0,0,122.743,31.013Zm4.187-.512-.1,0a1.713,1.713,0,0,0-.094.385c-.016,1.576-.023,3.152-.032,4.727a.448.448,0,0,0,.021.216,1.125,1.125,0,0,0,.212.2,36.781,36.781,0,0,0,.084-5.246A1.31,1.31,0,0,0,126.93,30.5ZM100.96,35.241a3.209,3.209,0,0,0,.149-1.483c.021-.475,0-.951,0-1.427,0-.494,0-.989-.015-1.482a4.58,4.58,0,0,0-.133-1.422A26.022,26.022,0,0,0,100.96,35.241Zm8.465,1.262c.041-.084.071-.116.071-.148q.01-2.478.01-4.955c0-.084-.077-.167-.118-.251l-.108.012a4.845,4.845,0,0,0-.071.568c-.008.642,0,1.285,0,1.928,0,.789,0,1.578,0,2.368C109.212,36.191,109.163,36.392,109.425,36.5Zm4.479-5.2a5.54,5.54,0,0,0-.107,1.425c-.016.44-.011.88-.014,1.32,0,.458-.022.918,0,1.375a3.006,3.006,0,0,0,.122,1.384c.092-.1.181-.152.2-.221A30.72,30.72,0,0,0,113.9,31.3Zm16.656,3.745.157-.024a1.645,1.645,0,0,0,.075-.353q-.013-2.335-.043-4.669a1.472,1.472,0,0,0-.145-.369,2.336,2.336,0,0,0-.085.368c-.025,1.556-.05,3.112-.065,4.668A1.417,1.417,0,0,0,130.56,35.048Zm7.521-2.071a44.02,44.02,0,0,0,.058-4.8.854.854,0,0,0-.1-.226l-.112,0a5.034,5.034,0,0,0-.068.559c-.013.862-.016,1.724-.022,2.587,0,.5-.009.991-.008,1.486C137.832,32.746,137.8,32.93,138.081,32.978Zm3.5-1.994a25.079,25.079,0,0,0,.087-4.511,1.488,1.488,0,0,0-.075-.286l-.116-.009a1.58,1.58,0,0,0-.094.367q-.025,1.976-.03,3.952C141.355,30.669,141.326,30.867,141.583,30.983ZM93.074,25.962a.858.858,0,0,0-.067.229Q93,28.854,93,31.517a1.061,1.061,0,0,0,.122.3A29.014,29.014,0,0,0,93.074,25.962Z" transform="translate(-89.308 -12.073)" fill="#fff" stroke="#b1aeae" stroke-width="1"/>
      <path id="Path_8598" data-name="Path 8598" d="M145.169,81.88c0,.315,0,.494,0,.673-.054,4.588-.116,9.176-.151,13.764a1,1,0,0,1-.466.914c-.288.194-.574.4-.879.563a39.5,39.5,0,0,1-10.068,3.739c-1.819.42-3.659.767-5.506,1.041-1.684.25-3.387.42-5.087.509-2.032.106-4.071.128-6.107.111a61.724,61.724,0,0,1-7.02-.52,48.956,48.956,0,0,1-8.541-1.791,31.619,31.619,0,0,1-6.468-2.733c-.65-.375-1.259-.821-1.9-1.217a.758.758,0,0,1-.385-.723c0-1.431-.038-2.863-.049-4.294q-.033-4.735-.054-9.47c0-.212.014-.424.025-.714.334.219.59.39.848.556a31.458,31.458,0,0,0,6.511,3.046,49.9,49.9,0,0,0,10.245,2.452,53.192,53.192,0,0,0,9.223.447c1.65-.071,3.3-.109,4.946-.263a57.724,57.724,0,0,0,17.16-4.062A17,17,0,0,0,145.169,81.88ZM99.252,91.963a7.989,7.989,0,0,0,.779-.437,1.56,1.56,0,0,0,.27-2.4,4.253,4.253,0,0,0-2.991-1.191c-.355-.01-.439.1-.468.459A48.251,48.251,0,0,0,96.863,94a3.047,3.047,0,0,0,.072.489c.061.3.225.454.463.426.281-.034.348-.24.354-.475.016-.587.024-1.174.034-1.761,0-.2,0-.391,0-.6h.543l1.74,2.489c-.464.363-.884.687-1.3,1.019a1.577,1.577,0,0,0-.347.348.308.308,0,0,0,.019.293.318.318,0,0,0,.287.041,1.75,1.75,0,0,0,.363-.242c.428-.312.855-.625,1.323-.968.37.526.7,1.026,1.067,1.506a2.544,2.544,0,0,0,.583.569.471.471,0,0,0,.441-.024.518.518,0,0,0,.143-.426,1.355,1.355,0,0,0-.256-.477c-.378-.557-.763-1.11-1.133-1.648.029-.054.034-.076.047-.085.285-.2.572-.4.856-.6.327-.229.409-.386.3-.558s-.288-.167-.626.05c-.32.206-.634.42-.98.65Z" transform="translate(-90.851 -53.546)" fill="#fff" stroke="#b1aeae" stroke-width="1"/>
      <path id="Path_8599" data-name="Path 8599" d="M145.646,200.678c0,.836,0,1.689,0,2.541a6.227,6.227,0,0,1-1.921,4.316,16.769,16.769,0,0,1-5.288,3.791,38.889,38.889,0,0,1-9.413,2.951,49.811,49.811,0,0,1-10.454.874,45.249,45.249,0,0,1-14.819-2.633,21.144,21.144,0,0,1-6.7-3.824c-.618-.543-1.17-1.162-1.732-1.765a3.648,3.648,0,0,1-1.033-2.536c-.006-.863-.029-1.725-.042-2.587a.6.6,0,0,1,.049-.159c.411.33.792.664,1.2.96a33.346,33.346,0,0,0,9.706,4.708,41.4,41.4,0,0,0,8.838,1.694,55,55,0,0,0,6.71.189,46.975,46.975,0,0,0,17.931-3.937,30.6,30.6,0,0,0,5.791-3.476A13.915,13.915,0,0,0,145.646,200.678Z" transform="translate(-91.907 -125.091)" fill="#fff" stroke="#b1aeae" stroke-width="1"/>
      <path id="Path_8600" data-name="Path 8600" d="M145.271,64.975c0,.461,0,.879,0,1.3,0,.991-.044,1.983,0,2.972a1.087,1.087,0,0,1-.548,1.031,18.465,18.465,0,0,1-3.466,1.9,46.08,46.08,0,0,1-10.514,3.108,64.39,64.39,0,0,1-12.988.858,68.212,68.212,0,0,1-12.177-1.327,36.144,36.144,0,0,1-8.56-2.748,26.141,26.141,0,0,1-3.989-2.428.944.944,0,0,1-.43-.873c.028-1.206.01-2.413.01-3.679a1.259,1.259,0,0,1,.267.1,22.484,22.484,0,0,0,6.092,3.005,49.92,49.92,0,0,0,8.038,2.016,73.42,73.42,0,0,0,15.685.842,63.412,63.412,0,0,0,14.856-2.289,24.755,24.755,0,0,0,5.7-2.428C143.927,65.933,144.556,65.458,145.271,64.975Z" transform="translate(-90.919 -43.466)" fill="#fff" stroke="#b1aeae" stroke-width="1"/>
      <path id="Path_8601" data-name="Path 8601" d="M92.615,77.309c.457.327.9.669,1.37.98a28.839,28.839,0,0,0,8.819,3.734,58.754,58.754,0,0,0,7.945,1.449,76.3,76.3,0,0,0,10.769.507,53.419,53.419,0,0,0,17.106-2.96c1.29-.468,2.559-1.009,3.8-1.6A26.92,26.92,0,0,0,144.773,78c.12-.073.235-.154.385-.253a1.177,1.177,0,0,1-.522,1.431,21.581,21.581,0,0,1-3.924,1.971,54.6,54.6,0,0,1-11.265,3.1,70.3,70.3,0,0,1-12.495.95,51.013,51.013,0,0,1-19.5-3.932,30.457,30.457,0,0,1-4.6-2.473.565.565,0,0,1-.322-.575c.026-.273.017-.55.027-.825C92.564,77.371,92.6,77.342,92.615,77.309Z" transform="translate(-90.877 -50.885)" fill="#fff" stroke="#b1aeae" stroke-width="1"/>
      <path id="Path_8602" data-name="Path 8602" d="M94.157,197.963a25.571,25.571,0,0,0,7.082,4.322A31.552,31.552,0,0,0,109,204.817a65.1,65.1,0,0,0,7.367.883,45.357,45.357,0,0,0,6.985-.041,43.678,43.678,0,0,0,17.878-5.337,20.643,20.643,0,0,0,4.305-3.131c.158.461.131.477-.1.819a7.95,7.95,0,0,1-2.085,1.933,35.476,35.476,0,0,1-12.114,5.307,51.16,51.16,0,0,1-9.014,1.346,54.064,54.064,0,0,1-7.151-.027,40,40,0,0,1-13.631-3.188,29.216,29.216,0,0,1-5.749-3.213c-.426-.317-.824-.672-1.221-1.024A1.139,1.139,0,0,1,94.157,197.963Z" transform="translate(-91.83 -122.994)" fill="#fff" stroke="#b1aeae" stroke-width="1"/>
      <path id="Path_8603" data-name="Path 8603" d="M93.02,35.146a2.52,2.52,0,0,1,.284.178,24.325,24.325,0,0,0,9.507,4.894,46.9,46.9,0,0,0,7.1,1.466,64.285,64.285,0,0,0,10.652.531,63.062,63.062,0,0,0,7.065-.636,53.126,53.126,0,0,0,10.331-2.562,31.364,31.364,0,0,0,5.789-2.783c.483-.3.929-.654,1.394-.98a2.857,2.857,0,0,1,.276-.152c.174.187.039.3-.065.383a15.374,15.374,0,0,1-1.317.989,31.914,31.914,0,0,1-6.391,3.048A53.51,53.51,0,0,1,127.343,42a61.934,61.934,0,0,1-10.15.635,55.567,55.567,0,0,1-14.661-2.078,30.266,30.266,0,0,1-5.947-2.42,17.77,17.77,0,0,1-3.092-2.191,3.391,3.391,0,0,1-.441-.487C93.011,35.407,93.033,35.305,93.02,35.146Z" transform="translate(-91.17 -25.498)" stroke="#b1aeae" stroke-width="1"/>
      <path id="Path_8604" data-name="Path 8604" d="M106.859,50.3c.3.44.3,5.766.109,6.2-.235-.118-.177-.338-.179-.522-.006-.953,0-1.906,0-2.859,0-.77,0-1.54,0-2.309A3.82,3.82,0,0,1,106.859,50.3Z" transform="translate(-99.45 -34.637)" stroke="#b1aeae" stroke-width="1"/>
      <path id="Path_8605" data-name="Path 8605" d="M201.4,59.37a2.19,2.19,0,0,1-.09-.446q0-2.467.024-4.934a1.673,1.673,0,0,1,.093-.378l.126.009a2.849,2.849,0,0,1,.068.393C201.718,56.64,201.673,58.961,201.4,59.37Z" transform="translate(-156.307 -36.631)" stroke="#b1aeae" stroke-width="1"/>
      <path id="Path_8606" data-name="Path 8606" d="M127.466,62.315a.465.465,0,0,1-.243-.51c-.008-1.633-.007-3.266-.006-4.9,0-.141-.02-.307.237-.339a.793.793,0,0,1,.1.262q.007,2.5,0,5.009A2.911,2.911,0,0,1,127.466,62.315Z" transform="translate(-111.739 -38.408)" stroke="#b1aeae" stroke-width="1"/>
      <path id="Path_8607" data-name="Path 8607" d="M161.322,64.906a1.7,1.7,0,0,1-.1-.39q-.023-2.392-.028-4.784c0-.159-.013-.338.277-.39a2.165,2.165,0,0,1,.094.449q-.014,2.419-.046,4.838a1.2,1.2,0,0,1-.056.249Z" transform="translate(-132.179 -40.078)" stroke="#b1aeae" stroke-width="1"/>
      <path id="Path_8608" data-name="Path 8608" d="M172.123,58.526a24.925,24.925,0,0,1,.084,5.686c-.073-.1-.161-.175-.171-.256a4.748,4.748,0,0,1-.015-.6c.006-1.372.01-2.745.024-4.118A6.792,6.792,0,0,1,172.123,58.526Z" transform="translate(-138.688 -39.587)" stroke="#b1aeae" stroke-width="1"/>
      <path id="Path_8609" data-name="Path 8609" d="M182.44,57.236a1.311,1.311,0,0,1,.089.283,36.785,36.785,0,0,1-.084,5.246,1.123,1.123,0,0,1-.212-.2.448.448,0,0,1-.021-.216c.009-1.576.016-3.152.032-4.727a1.715,1.715,0,0,1,.094-.385Z" transform="translate(-144.818 -38.809)" stroke="#b1aeae" stroke-width="1"/>
      <path id="Path_8610" data-name="Path 8610" d="M117.373,60.362a26.022,26.022,0,0,1,0-5.814,4.58,4.58,0,0,1,.133,1.422c.018.493.012.988.015,1.482,0,.475.023.952,0,1.427A3.209,3.209,0,0,1,117.373,60.362Z" transform="translate(-105.72 -37.194)" stroke="#b1aeae" stroke-width="1"/>
      <path id="Path_8611" data-name="Path 8611" d="M138.525,64.223c-.262-.111-.213-.312-.214-.479-.006-.789,0-1.579,0-2.368,0-.642-.006-1.285,0-1.928a4.844,4.844,0,0,1,.071-.568l.108-.012c.041.084.118.167.118.251q0,2.478-.01,4.955C138.6,64.107,138.567,64.139,138.525,64.223Z" transform="translate(-118.409 -39.793)" stroke="#b1aeae" stroke-width="1"/>
      <path id="Path_8612" data-name="Path 8612" d="M149.882,59.255a30.719,30.719,0,0,1,.2,5.283c-.017.069-.105.121-.2.221a3.006,3.006,0,0,1-.122-1.384c-.021-.457,0-.917,0-1.375,0-.44,0-.881.014-1.32A5.54,5.54,0,0,1,149.882,59.255Z" transform="translate(-125.286 -40.025)" stroke="#b1aeae" stroke-width="1"/>
      <path id="Path_8613" data-name="Path 8613" d="M191.737,60.48a1.417,1.417,0,0,1-.105-.379c.015-1.556.039-3.112.065-4.668a2.335,2.335,0,0,1,.085-.368,1.472,1.472,0,0,1,.145.369q.03,2.334.043,4.669a1.644,1.644,0,0,1-.075.353Z" transform="translate(-150.485 -37.505)" stroke="#b1aeae" stroke-width="1"/>
      <path id="Path_8614" data-name="Path 8614" d="M210.393,55.875c-.279-.048-.249-.231-.249-.387,0-.5,0-.991.008-1.486.006-.862.009-1.725.022-2.587a5.034,5.034,0,0,1,.068-.559l.112,0a.854.854,0,0,1,.1.226A44.016,44.016,0,0,1,210.393,55.875Z" transform="translate(-161.62 -34.971)" stroke="#b1aeae" stroke-width="1"/>
      <path id="Path_8615" data-name="Path 8615" d="M219.213,51.2c-.257-.116-.228-.314-.228-.487q.007-1.976.03-3.952a1.581,1.581,0,0,1,.094-.367l.116.009a1.486,1.486,0,0,1,.075.286A25.076,25.076,0,0,1,219.213,51.2Z" transform="translate(-166.937 -32.289)" stroke="#b1aeae" stroke-width="1"/>
      <path id="Path_8616" data-name="Path 8616" d="M97.713,45.853a29.014,29.014,0,0,1,.047,5.858,1.061,1.061,0,0,1-.122-.3q0-2.662.008-5.326A.859.859,0,0,1,97.713,45.853Z" transform="translate(-93.947 -31.964)" stroke="#b1aeae" stroke-width="1"/>
      <path id="Path_8617" data-name="Path 8617" d="M105.705,101.324l1.606,2.055c.346-.23.66-.444.98-.65.338-.216.51-.226.626-.05s.031.329-.3.558c-.285.2-.571.4-.856.6-.013.009-.018.031-.047.085.371.538.756,1.09,1.133,1.648a1.355,1.355,0,0,1,.256.477.519.519,0,0,1-.143.426.471.471,0,0,1-.441.024,2.544,2.544,0,0,1-.583-.569c-.362-.479-.7-.98-1.067-1.506-.469.343-.9.656-1.323.968a1.75,1.75,0,0,1-.363.242.318.318,0,0,1-.287-.041.308.308,0,0,1-.019-.292,1.577,1.577,0,0,1,.347-.348c.414-.332.833-.656,1.3-1.019l-1.74-2.489h-.543c0,.214,0,.41,0,.6-.01.587-.018,1.174-.034,1.761-.006.235-.074.442-.354.475-.239.029-.4-.122-.463-.426a3.047,3.047,0,0,1-.072-.489,48.251,48.251,0,0,1-.021-5.61c.029-.355.112-.47.468-.459a4.253,4.253,0,0,1,2.991,1.191,1.56,1.56,0,0,1-.27,2.4A7.989,7.989,0,0,1,105.705,101.324Zm-1.491-.607a1.691,1.691,0,0,0,1.515-.37,1.058,1.058,0,0,0,.052-1.736,4.65,4.65,0,0,0-.922-.577,2.649,2.649,0,0,0-.645-.14Z" transform="translate(-97.304 -62.907)" stroke="#b1aeae" stroke-width="1"/>
      <path id="Path_8618" data-name="Path 8618" d="M105.718,101.621V98.8a2.648,2.648,0,0,1,.645.14,4.651,4.651,0,0,1,.922.577,1.058,1.058,0,0,1-.052,1.736A1.691,1.691,0,0,1,105.718,101.621Z" transform="translate(-98.808 -63.81)" fill="#fff" stroke="#b1aeae" stroke-width="1"/>
    </g>
  </g>
</svg>
