<svg xmlns="http://www.w3.org/2000/svg" width="45.933" height="40.995" viewBox="0 0 45.933 40.995">
  <g id="Group_3726" data-name="Group 3726" transform="translate(-1216.482 -243.007)">
    <g id="Group_3725" data-name="Group 3725" transform="translate(1217.482 244.007)">
      <path id="Path_8580" data-name="Path 8580" d="M1239.448,249.076a14.581,14.581,0,0,1,10.983-5.069c6.5,0,10.983,5.589,10.983,12.21,0,9.157-8.939,15.221-21.966,26.784-13.027-11.563-21.966-17.627-21.966-26.784,0-6.621,4.481-12.21,10.983-12.21A14.58,14.58,0,0,1,1239.448,249.076Z" transform="translate(-1217.482 -244.007)" fill="none" stroke="#ff5c01" stroke-linecap="round" stroke-linejoin="round" stroke-width="2"/>
      <path id="Path_8581" data-name="Path 8581" d="M1341.524,329.814h-5.336v5.333h-5.495v-5.333h-5.335v-5.495h5.335v-5.333h5.495v5.333h5.336Z" transform="translate(-1311.475 -309.336)" fill="none" stroke="#ff5c01" stroke-linecap="round" stroke-linejoin="round" stroke-width="2"/>
    </g>
  </g>
</svg>
