<svg xmlns="http://www.w3.org/2000/svg" width="57.899" height="57.899" viewBox="0 0 57.899 57.899">
  <g id="Group_3722" data-name="Group 3722" transform="translate(-2438.919 -583.692)">
    <rect id="Rectangle_143" data-name="Rectangle 143" width="33.124" height="44.758" rx="10" transform="matrix(0.707, 0.707, -0.707, 0.707, 2471.981, 585.107)" fill="none" stroke="#ff5c01" stroke-miterlimit="10" stroke-width="2"/>
    <path id="Path_8572" data-name="Path 8572" d="M2534.22,623.816a4.279,4.279,0,1,1,0-6.051A4.279,4.279,0,0,1,2534.22,623.816Z" transform="translate(-59.326 -21.518)" fill="none" stroke="#ff5c01" stroke-miterlimit="10" stroke-width="2"/>
    <circle id="Ellipse_5" data-name="Ellipse 5" cx="4.278" cy="4.278" r="4.278" transform="translate(2477.057 604.46)" fill="none" stroke="#ff5c01" stroke-miterlimit="10" stroke-width="2"/>
    <path id="Path_8573" data-name="Path 8573" d="M2506.631,651.4a4.278,4.278,0,1,1,0-6.051A4.278,4.278,0,0,1,2506.631,651.4Z" transform="translate(-40.422 -40.422)" fill="none" stroke="#ff5c01" stroke-miterlimit="10" stroke-width="2"/>
    <circle id="Ellipse_6" data-name="Ellipse 6" cx="4.278" cy="4.278" r="4.278" transform="translate(2468.372 613.146)" fill="none" stroke="#ff5c01" stroke-miterlimit="10" stroke-width="2"/>
    <circle id="Ellipse_7" data-name="Ellipse 7" cx="4.279" cy="4.279" r="4.279" transform="translate(2448.7 618.374) rotate(-61.619)" fill="none" stroke="#ff5c01" stroke-miterlimit="10" stroke-width="2"/>
    <circle id="Ellipse_8" data-name="Ellipse 8" cx="4.278" cy="4.278" r="4.278" transform="translate(2459.686 621.831)" fill="none" stroke="#ff5c01" stroke-miterlimit="10" stroke-width="2"/>
  </g>
</svg>
